<svg xmlns="http://www.w3.org/2000/svg" xmlns:svg="http://www.w3.org/2000/svg" id="svg3039" width="120" height="120" display="inline" version="1.1"><metadata id="metadata3045"/><g id="layer2" display="none"><path id="path3053" fill="#afafaf" fill-opacity="1" stroke="none" stroke-width="7" d="m 45.375,17 c -13.984022,0.241082 -24.968241,3.28976 -37.4375,9.59375 -8.9920665,21.871558 -6.680947,46.393002 -1.96875,69 26.190925,13.15317 55.594909,12.97748 81.75,-0.21875 3.852144,-9.729509 1.599587,-12.800015 2.375,-23.15625 C 83.917272,72.423868 77.129905,67.688094 74.1875,75.25 72.702487,79.722025 76.119709,82.645519 69.15625,83.34375 53.023957,88.536726 37.721719,89.140031 21.875,82.28125 19.715285,68.367979 18.599566,53.65725 22.5,40 c 16.868164,-6.642068 33.121079,-6.120062 50.03125,-0.15625 1.285344,5.854815 1.574746,5.763255 2.375,11.6875 C 80.46378,51.970623 89.644961,53.334736 91.3125,46 91.85305,36.007959 89.372312,31.625095 87.1875,25.6875 73.709743,21.03478 59.804255,16.698888 45.375,17 z" baseline-shift="baseline" color="#000" direction="ltr" display="inline" enable-background="accumulate" font-family="Sans" font-size="medium" font-stretch="normal" font-style="normal" font-variant="normal" font-weight="normal" letter-spacing="normal" overflow="visible" text-anchor="start" text-decoration="none" visibility="visible" word-spacing="normal" writing-mode="lr-tb" style="text-indent:0;text-align:start;line-height:normal;text-transform:none;block-progression:tb;marker:none;-inkscape-font-specification:Sans"/></g><g id="layer3" display="none"><path id="path3844" fill="#6e6e6e" fill-opacity="1" stroke="none" d="m 63.983409,65.48134 0.267857,-9.514444 36.161424,-0.194173 -7.414458,-8.757971 3.798312,-7.572721 c 0,0 23.437946,20.796656 22.500436,21.185 -0.93751,0.388345 -23.170094,22.73838 -23.170094,22.73838 l -3.128654,-8.931927 7.548388,-8.5638 z" display="inline"/></g><g id="layer4" display="none"><path id="path4080" fill="#6e6e6e" fill-opacity="1" stroke="none" d="m 99.28763,65.48134 -0.26786,-9.514444 -36.161422,-0.194173 7.768009,-6.283097 -4.151865,-9.279828 c 0,0 -23.43795,20.028889 -22.500436,20.417233 0.937514,0.388345 23.170094,20.970613 23.170094,20.970613 l 3.482207,-9.639034 -7.901936,-6.088926 z" display="inline"/></g><g id="layer7" display="inline"><path id="path4103" fill="#a9a9a9" fill-opacity="1" stroke="none" d="M 9.4375,99.758169 78.14665,33.110294 73.680556,28.300653 67.153187,8.375 l 18.55147,6.527369 4.80964,3.779003 4.809641,-4.80964 11.680552,12.367647 -6.18382,4.80964 13.74183,14.085377 -12.71119,14.42892 -14.77247,-16.14665 -65.273693,70.770424 z" display="inline"/><path id="path4619" fill="#a9a9a9" fill-opacity="1" stroke="none" d="M 114.5625,99.758169 45.85335,33.110294 50.319444,28.300653 56.846813,8.375 l -18.55147,6.527369 -4.80964,3.779003 -4.809641,-4.80964 -11.680556,12.367647 6.183825,4.80964 L 9.4375,45.134396 22.148693,59.563316 36.92116,43.416666 102.19485,114.18709 z" display="inline"/><path id="path5256" fill="#6e6e6e" fill-opacity="1" stroke="none" d="M 10.960155,44.693128 38.53732,16.408856 54.093669,10.752002 48.436815,28.076118 22.273864,56.713943 z"/><path id="path5258" fill="#6e6e6e" fill-opacity="1" stroke="none" d="M 69.296465,10.398449 85.559921,17.115963 111.72287,45.046681 102.17693,56.713943 74.953319,27.722565 z"/></g></svg>